<svg width="18" height="16" viewBox="0 0 18 16" fill="none" xmlns="http://www.w3.org/2000/svg">
<path d="M17.3272 2.38601C17.2799 2.2718 17.1999 2.17417 17.0971 2.10547C16.9943 2.03678 16.8735 2.0001 16.7499 2.00007H14.3725C14.0401 1.43459 13.5671 0.964725 12.9994 0.636169C12.4317 0.307612 11.7886 0.131541 11.1327 0.125071C10.644 0.118662 10.159 0.210051 9.70621 0.393861C9.25339 0.577671 8.84191 0.85019 8.49597 1.19538C8.13993 1.54478 7.85734 1.96183 7.66482 2.42201C7.47229 2.8822 7.37371 3.37624 7.37488 3.87507V4.35085C4.22956 3.52116 1.65691 0.962571 1.62956 0.935227C1.54571 0.850634 1.43944 0.791763 1.32325 0.765545C1.20706 0.739328 1.0858 0.746856 0.973751 0.787244C0.861699 0.827632 0.76352 0.899198 0.690778 0.993513C0.618035 1.08783 0.573757 1.20097 0.563159 1.3196C0.22644 5.0532 1.31082 7.55163 2.28191 8.98991C2.75541 9.70093 3.33143 10.338 3.99128 10.8805C2.80144 12.2501 0.928003 12.9696 0.90769 12.9774C0.819498 13.0104 0.73991 13.063 0.674874 13.1311C0.609838 13.1992 0.561036 13.2811 0.532113 13.3708C0.503189 13.4604 0.494894 13.5554 0.507846 13.6487C0.520798 13.7419 0.554662 13.8311 0.606909 13.9094C0.665502 13.9969 0.899878 14.304 1.47253 14.5907C2.18035 14.9454 3.1155 15.1251 4.24988 15.1251C9.77097 15.1251 14.3843 10.8735 14.8553 5.4032L17.1921 3.06726C17.2794 2.9798 17.3389 2.8684 17.363 2.74714C17.387 2.62587 17.3746 2.5002 17.3272 2.38601ZM13.8116 4.68366C13.7044 4.79108 13.64 4.93381 13.6303 5.08523C13.3124 10.0141 9.19363 13.8751 4.24988 13.8751C3.42488 13.8751 2.84363 13.7657 2.43581 13.6344C3.33503 13.1462 4.58894 12.3063 5.39519 11.0969C5.44251 11.0258 5.47475 10.9458 5.48992 10.8617C5.5051 10.7777 5.50288 10.6914 5.4834 10.6082C5.46393 10.525 5.42761 10.4467 5.3767 10.3782C5.32578 10.3096 5.26135 10.2522 5.18738 10.2094C5.15066 10.1884 1.75691 8.15163 1.74988 2.70945C2.99988 3.72507 5.28503 5.30085 7.89597 5.73991C7.98545 5.755 8.07715 5.75042 8.16468 5.72649C8.25222 5.70256 8.33349 5.65986 8.40286 5.60135C8.47222 5.54284 8.52801 5.46993 8.56635 5.38768C8.6047 5.30543 8.62467 5.21582 8.62488 5.12507V3.87507C8.62418 3.54167 8.69017 3.2115 8.81897 2.90399C8.94777 2.59647 9.13678 2.31783 9.37488 2.08445C9.60312 1.85577 9.8749 1.67518 10.1741 1.55333C10.4734 1.43149 10.794 1.37088 11.1171 1.37507C12.1061 1.38757 13.0303 1.9907 13.4171 2.87585C13.4658 2.98714 13.5459 3.0818 13.6476 3.14827C13.7494 3.21473 13.8682 3.25011 13.9897 3.25007H15.2397L13.8116 4.68366Z" fill="white"/>
</svg>
